<svg width="265" height="261" viewBox="0 0 265 261" fill="none" xmlns="http://www.w3.org/2000/svg">
<rect x="93.5544" y="201.657" width="28.0296" height="11.679" rx="3" fill="black"/>
<path d="M0.102685 80.0416C0.113186 78.3931 1.45255 77.0815 3.10104 77.0815H12.666C14.3339 77.0815 15.6815 78.4429 15.6658 80.1108C15.5311 94.3899 15.4473 103.27 15.3051 118.347C15.3051 118.347 15.3285 121.466 15.6944 123.408C15.9614 124.825 16.1296 125.669 16.8623 126.912C17.736 128.393 18.6071 128.986 19.9767 130.026C21.4935 131.179 22.4243 131.849 24.259 132.362C26.4553 132.976 27.9568 133.146 30.0985 132.362C32.7234 131.402 33.6866 129.677 35.1594 127.301C37.0635 124.23 37.4952 118.347 37.4952 118.347V21.6865C37.4952 20.0297 38.8383 18.6865 40.4952 18.6865H50.8218C52.488 18.6865 53.8354 19.9938 53.8221 21.6599C53.6917 38.0405 53.0672 116.604 53.0672 118.347C53.0672 120.294 53.063 122.169 52.6779 124.576C52.229 127.381 51.8741 128.983 50.7314 131.583C49.5773 134.21 48.5309 135.496 46.8384 137.812C45.5634 139.557 44.9798 140.694 43.3347 142.095C41.3669 143.77 39.0523 144.783 37.4952 145.209C35.938 145.635 32.0483 145.846 28.5413 145.988C25.5031 146.11 23.7661 146.412 20.7553 145.988C17.9429 145.591 16.2713 145.344 13.7479 144.041C12.0991 143.189 11.2935 142.488 9.85489 141.316C7.85484 139.686 6.70081 138.731 5.1833 136.644C3.5837 134.445 2.91897 132.999 2.0689 130.416C1.29532 128.065 1.29037 126.631 0.901 124.187C0.539039 121.915 0.397802 121.072 0.122401 118.347C-0.106317 116.084 0.0448604 89.1185 0.102685 80.0416Z" fill="black"/>
<path d="M99.783 3C99.783 1.34315 101.126 0 102.783 0H113.134C114.79 0 116.134 1.34315 116.134 3V94.3249C116.134 95.9818 114.79 97.3249 113.134 97.3249H101.519C100.445 97.3249 99.4531 96.7507 98.918 95.8193L84.3621 70.4812C82.8315 67.8168 78.7608 68.8731 78.7608 71.9458C78.7608 96.0575 78.7608 153.911 78.7608 194.261C78.7608 197.453 78.7608 200.1 78.7608 202.436C78.7608 204.772 78.1284 206.481 76.8143 208.665C75.7596 210.417 74.8498 211.211 73.3106 212.558C71.4064 214.224 70.3123 215.436 67.8604 216.061C65.9452 216.549 63.1888 216.84 63.1888 216.84C63.1888 216.84 57.9234 216.943 55.0135 216.061C53.9054 215.726 53.3415 215.375 52.2884 214.893C50.7425 214.187 49.7353 213.993 48.3954 212.947C47.1214 211.953 46.6535 211.115 45.6703 209.833C44.6699 208.527 43.9088 207.87 43.3345 206.329C42.6423 204.471 43.0181 203.249 42.9452 201.268C42.8781 199.445 42.9452 198.421 42.9452 196.596C42.9452 183.852 42.9452 165.457 42.9452 158.319C42.9452 156.662 44.2884 155.331 45.9452 155.331H52.7921C54.4489 155.331 55.7921 156.674 55.7921 158.331V195.818C55.7921 195.818 55.7921 201.268 56.1814 201.657C56.5707 202.047 57.6048 203.084 58.9065 203.604C59.7654 203.947 60.7302 203.81 61.6316 203.604C62.889 203.315 62.6168 203.203 63.1888 202.047C63.7993 200.813 63.4883 200.695 63.5781 199.321C63.7069 197.349 63.5781 194.261 63.5781 194.261V34.144C63.5781 32.4871 64.9212 31.144 66.5781 31.144H76.2962C77.3432 31.144 78.3144 31.6898 78.8588 32.5841L94.2204 57.821C95.7972 60.4115 99.783 59.2938 99.783 56.2612V3Z" fill="black"/>
<path d="M124.698 17.7935C124.698 16.1366 126.041 14.7935 127.698 14.7935H142.606V29.9761V76.0279C142.606 77.6848 143.949 79.0279 145.606 79.0279H155.064L160.647 78.6789C161.072 78.6523 161.487 78.5355 161.864 78.3361L167.398 75.4061C167.737 75.2269 168.038 74.9847 168.285 74.6925L171.869 70.457C172.083 70.2034 172.254 69.916 172.375 69.6065L174.726 63.5611C174.853 63.234 174.922 62.8871 174.929 62.5362L175.294 45.0061C175.303 44.5933 175.226 44.1832 175.069 43.8014L172.828 38.3583C172.666 37.9653 172.422 37.6113 172.113 37.3195L166.25 31.7815C165.81 31.3662 165.255 31.0936 164.658 30.9992L158.411 30.0129C158.256 29.9884 158.099 29.9761 157.943 29.9761H142.606V14.7935H153.896L165.944 15.17C166.215 15.1784 166.485 15.2239 166.745 15.305L172.318 17.0467C172.494 17.1016 172.664 17.1726 172.827 17.2588L178.802 20.4219C179.066 20.5618 179.308 20.7405 179.519 20.9519L184.389 25.822C184.563 25.9954 184.714 26.1895 184.84 26.3998L189.106 33.51C189.249 33.7483 189.359 34.0053 189.431 34.2736L191.983 43.7538C192.026 43.9116 192.055 44.0726 192.072 44.2352L192.826 51.7769V58.395L192.047 64.2345L190.579 70.4725C190.52 70.7248 190.428 70.9684 190.306 71.1972L187.375 76.6921L184.784 80.7637C184.695 80.9039 184.595 81.0365 184.483 81.16L181.33 84.6636C181.208 84.7992 181.074 84.9234 180.929 85.0346L176.315 88.5842C176.162 88.7014 175.999 88.8037 175.827 88.8896L169.328 92.1394C169.162 92.2223 168.989 92.2897 168.81 92.3407L163.951 93.7291C163.736 93.7904 163.516 93.8275 163.293 93.8399L156.621 94.2106H142.606H127.698C126.041 94.2106 124.698 92.8674 124.698 91.2106V17.7935Z" fill="black"/>
<path d="M87.3256 111.226C87.3256 109.569 88.6687 108.226 90.3256 108.226H105.233V123.409V169.461C105.233 171.117 106.576 172.461 108.233 172.461H117.691L123.275 172.112C123.7 172.085 124.114 171.968 124.491 171.769L130.026 168.839C130.364 168.66 130.665 168.417 130.912 168.125L134.496 163.89C134.711 163.636 134.882 163.349 135.002 163.039L137.353 156.994C137.48 156.667 137.549 156.32 137.556 155.969L137.921 138.439C137.93 138.026 137.853 137.616 137.696 137.234L135.455 131.791C135.293 131.398 135.05 131.044 134.741 130.752L128.877 125.214C128.437 124.799 127.882 124.526 127.285 124.432L121.038 123.445C120.883 123.421 120.727 123.409 120.57 123.409H105.233V108.226H116.523L128.571 108.603C128.843 108.611 129.112 108.657 129.372 108.738L134.945 110.479C135.121 110.534 135.291 110.605 135.454 110.691L141.429 113.855C141.693 113.994 141.935 114.173 142.146 114.385L147.017 119.255C147.19 119.428 147.342 119.622 147.468 119.832L151.734 126.943C151.877 127.181 151.986 127.438 152.058 127.706L154.611 137.186C154.653 137.344 154.683 137.505 154.699 137.668L155.453 145.21V151.828L154.674 157.667L153.207 163.905C153.147 164.157 153.055 164.401 152.933 164.63L150.003 170.125L147.412 174.196C147.323 174.337 147.222 174.469 147.111 174.593L143.957 178.096C143.835 178.232 143.701 178.356 143.557 178.467L138.942 182.017C138.79 182.134 138.627 182.236 138.455 182.322L131.955 185.572C131.789 185.655 131.616 185.722 131.438 185.773L126.578 187.162C126.364 187.223 126.143 187.26 125.92 187.273L119.248 187.643H105.233H90.3256C88.6687 187.643 87.3256 186.3 87.3256 184.643V111.226Z" fill="black"/>
<path d="M248.496 96.5467C248.496 97.4067 249.193 98.1039 250.053 98.1039H261.732C262.592 98.1039 263.289 97.4067 263.289 96.5467L262.544 87.234C262.522 86.9555 262.461 86.6815 262.362 86.4199L261.444 83.9715C261.377 83.7908 261.292 83.617 261.19 83.4526L258.413 78.9389C258.29 78.7396 258.144 78.5553 257.979 78.3898L253.901 74.3115C253.673 74.0835 253.409 73.8938 253.121 73.7496L248.497 71.4374C248.238 71.3079 247.961 71.2166 247.676 71.1663L241.747 70.1199C241.575 70.0896 241.4 70.0743 241.225 70.0743H234.433C234.206 70.0743 233.98 70.1001 233.759 70.1511L229.564 71.119C229.211 71.2005 228.876 71.3451 228.575 71.546L224.661 74.1552C224.46 74.289 224.277 74.4464 224.114 74.6242L220.255 78.8339C220.136 78.9632 220.029 79.1026 219.935 79.2505L217.592 82.9334C217.432 83.1834 217.311 83.4556 217.232 83.7411L215.515 89.9239C215.442 90.1853 215.405 90.4554 215.405 90.7268V97.7622C215.405 97.9893 215.431 98.2156 215.482 98.4368L216.478 102.752C216.541 103.026 216.642 103.289 216.779 103.535L220.262 109.805C220.397 110.049 220.566 110.272 220.763 110.469L226.073 115.779C226.227 115.934 226.399 116.071 226.583 116.188L230.588 118.737L238.374 123.408L245.298 127.417C245.61 127.598 245.888 127.834 246.116 128.113L248.755 131.339C249.095 131.754 249.317 132.253 249.399 132.783L249.972 136.51C250.025 136.856 250.018 137.21 249.949 137.554L249.403 140.282C249.318 140.707 249.142 141.108 248.888 141.458L246.725 144.432C246.357 144.937 245.841 145.315 245.248 145.513L240.966 146.94C240.541 147.082 240.09 147.127 239.645 147.071L235.016 146.493C234.414 146.417 233.849 146.161 233.395 145.758L230.83 143.478C230.669 143.335 230.524 143.175 230.397 143L227.935 139.615C227.632 139.199 227.442 138.712 227.382 138.201L227.006 135.012C226.829 133.501 225.548 132.362 224.027 132.362H216.848C215.191 132.362 213.848 133.705 213.848 135.362V139.462C213.848 139.659 213.867 139.857 213.906 140.05L215.289 146.963C215.366 147.347 215.517 147.713 215.734 148.039L217.616 150.861C217.699 150.986 217.792 151.104 217.892 151.215L221.442 155.12C221.57 155.26 221.71 155.388 221.862 155.502L225.879 158.514C226.161 158.726 226.479 158.887 226.817 158.988L233.67 161.044C233.949 161.128 234.24 161.17 234.532 161.17H240.32H245.603C245.971 161.17 246.336 161.103 246.68 160.97L250.91 159.343C251.117 159.264 251.313 159.162 251.497 159.039L255.571 156.324C255.784 156.182 255.979 156.012 256.149 155.821L259.007 152.606L262.121 147.934L264.184 143.808C264.364 143.448 264.47 143.056 264.495 142.654L264.846 137.034L264.488 128.44C264.468 127.948 264.326 127.469 264.076 127.044L260.729 121.354C260.619 121.167 260.489 120.992 260.342 120.833L255.697 115.831C255.568 115.692 255.426 115.566 255.273 115.454L249.868 111.49C249.732 111.39 249.587 111.302 249.436 111.226L241.877 107.447L236.355 104.133C236.144 104.007 235.95 103.856 235.777 103.682L233.464 101.369C233.363 101.269 233.27 101.161 233.185 101.048L231.468 98.7589C231.147 98.33 230.946 97.8229 230.887 97.2901L230.588 94.6002V90.9545C230.588 90.5348 230.676 90.1197 230.846 89.7361L231.732 87.7428C232 87.1405 232.459 86.6432 233.037 86.3276L235.756 84.8447C236.196 84.6043 236.69 84.4784 237.192 84.4784H240.838C241.267 84.4784 241.69 84.5701 242.08 84.7473L244.85 86.0064C245.447 86.2779 245.939 86.7376 246.25 87.3152L248.137 90.8198C248.372 91.257 248.496 91.7457 248.496 92.2421V96.5467Z" fill="black"/>
<path d="M165.191 208.91C165.191 209.601 165.751 210.161 166.442 210.161H175.91C176.601 210.161 177.162 209.601 177.162 208.91L176.566 201.513C176.543 201.233 176.481 200.957 176.382 200.694L175.689 198.861C175.621 198.68 175.535 198.506 175.433 198.341L173.252 194.823C173.129 194.623 172.982 194.439 172.816 194.274L169.631 191.112C169.403 190.885 169.139 190.697 168.851 190.553L165.265 188.773C165.007 188.645 164.732 188.555 164.449 188.505L159.778 187.687C159.607 187.657 159.434 187.642 159.26 187.642H153.875C153.65 187.642 153.425 187.667 153.205 187.718L149.972 188.458C149.621 188.539 149.287 188.682 148.986 188.881L145.963 190.882C145.762 191.015 145.578 191.172 145.415 191.349L142.375 194.642C142.256 194.771 142.148 194.91 142.053 195.058L140.233 197.898C140.072 198.149 139.95 198.422 139.87 198.708L138.527 203.509C138.453 203.772 138.416 204.044 138.416 204.318V209.817C138.416 210.046 138.442 210.274 138.494 210.496L139.264 213.813C139.328 214.088 139.431 214.352 139.569 214.599L142.305 219.49C142.442 219.733 142.611 219.957 142.81 220.154L147.003 224.317C147.158 224.471 147.329 224.608 147.514 224.724L150.701 226.738L157.001 230.491L162.513 233.66C162.826 233.84 163.104 234.074 163.333 234.353L165.298 236.737C165.641 237.153 165.865 237.653 165.947 238.186L166.369 240.91C166.424 241.26 166.416 241.616 166.346 241.962L165.952 243.919C165.866 244.345 165.688 244.748 165.431 245.099L163.868 247.233C163.499 247.736 162.983 248.112 162.391 248.308L159.218 249.358C158.795 249.498 158.347 249.542 157.906 249.487L154.456 249.059C153.857 248.985 153.294 248.731 152.841 248.331L150.944 246.657C150.783 246.515 150.637 246.355 150.509 246.181L148.647 243.639C148.342 243.221 148.149 242.732 148.088 242.219L147.865 240.332C147.686 238.822 146.406 237.685 144.885 237.685H140.156C138.499 237.685 137.156 239.028 137.156 240.685V243.329C137.156 243.527 137.176 243.726 137.215 243.921L138.298 249.298C138.376 249.684 138.529 250.051 138.748 250.378L140.18 252.511C140.264 252.635 140.357 252.754 140.458 252.864L143.264 255.928C143.391 256.068 143.532 256.195 143.684 256.309L146.81 258.636C147.092 258.846 147.408 259.005 147.745 259.105L153.117 260.705C153.395 260.788 153.683 260.83 153.973 260.83H158.576H162.748C163.114 260.83 163.476 260.763 163.818 260.633L167.087 259.384C167.293 259.306 167.489 259.205 167.673 259.083L170.855 256.977C171.068 256.836 171.263 256.667 171.434 256.477L173.696 253.949L176.216 250.196L177.83 246.991C178.013 246.629 178.12 246.234 178.145 245.83L178.422 241.438L178.138 234.686C178.117 234.191 177.974 233.709 177.722 233.283L175.123 228.896C175.012 228.709 174.882 228.535 174.733 228.376L171.056 224.444C170.927 224.306 170.784 224.18 170.631 224.068L166.341 220.945C166.205 220.845 166.06 220.758 165.909 220.683L159.836 217.668L155.428 215.041C155.217 214.916 155.023 214.766 154.849 214.593L153.057 212.814C152.957 212.714 152.863 212.606 152.777 212.493L151.512 210.818C151.187 210.388 150.984 209.879 150.924 209.343L150.701 207.346V204.547C150.701 204.124 150.79 203.707 150.963 203.321L151.546 202.019C151.815 201.417 152.275 200.921 152.855 200.607L154.758 199.576C155.196 199.339 155.687 199.214 156.186 199.214H158.876C159.301 199.214 159.722 199.305 160.11 199.48L162.065 200.362C162.663 200.632 163.155 201.09 163.468 201.667L164.828 204.175C165.067 204.614 165.191 205.106 165.191 205.605V208.91Z" fill="black"/>
<path d="M209.982 171.91C209.982 172.462 210.429 172.909 210.98 172.909H218.469C219.021 172.909 219.468 172.462 219.468 171.91L219.002 166.092C218.98 165.813 218.919 165.539 218.82 165.277L218.321 163.947C218.254 163.766 218.169 163.592 218.067 163.428L216.407 160.731C216.284 160.532 216.139 160.348 215.973 160.182L213.571 157.781C213.343 157.553 213.08 157.363 212.792 157.219L210.123 155.885C209.864 155.755 209.587 155.664 209.302 155.614L205.747 154.987C205.575 154.956 205.401 154.941 205.226 154.941H201.087C200.86 154.941 200.634 154.967 200.413 155.018L198.034 155.567C197.681 155.648 197.346 155.793 197.045 155.993L194.807 157.485C194.606 157.618 194.423 157.776 194.26 157.954L191.937 160.486C191.819 160.616 191.712 160.755 191.618 160.903L190.252 163.049C190.093 163.299 189.971 163.571 189.892 163.856L188.873 167.524C188.8 167.785 188.764 168.055 188.764 168.327V172.567C188.764 172.794 188.789 173.02 188.84 173.242L189.417 175.74C189.48 176.014 189.582 176.277 189.718 176.523L191.805 180.277C191.94 180.521 192.109 180.745 192.306 180.942L195.52 184.155C195.675 184.31 195.846 184.447 196.031 184.565L198.499 186.135L203.492 189.129L207.762 191.601C208.074 191.782 208.352 192.018 208.58 192.297L209.962 193.986C210.302 194.401 210.524 194.899 210.606 195.429L210.9 197.339C210.953 197.686 210.945 198.04 210.876 198.384L210.61 199.715C210.525 200.139 210.349 200.541 210.094 200.891L209.05 202.327C208.682 202.833 208.165 203.211 207.572 203.408L205.385 204.137C204.96 204.279 204.509 204.323 204.065 204.268L201.67 203.969C201.068 203.893 200.503 203.637 200.049 203.234L198.741 202.072C198.58 201.929 198.435 201.769 198.308 201.594L196.964 199.746C196.661 199.33 196.47 198.843 196.41 198.332L196.314 197.519C196.137 196.008 194.856 194.869 193.335 194.869H190.765C189.108 194.869 187.765 196.212 187.765 197.869V199.313C187.765 199.511 187.785 199.708 187.823 199.902L188.647 204.02C188.724 204.404 188.875 204.769 189.093 205.096L190.136 206.66C190.22 206.785 190.312 206.903 190.413 207.014L192.566 209.382C192.693 209.522 192.834 209.65 192.986 209.764L195.326 211.519C195.609 211.73 195.926 211.891 196.264 211.992L200.324 213.209C200.604 213.293 200.894 213.336 201.186 213.336H204.74H207.927C208.295 213.336 208.66 213.268 209.004 213.136L211.419 212.208C211.625 212.128 211.822 212.026 212.006 211.904L214.403 210.306C214.617 210.164 214.811 209.995 214.981 209.803L216.722 207.846L218.719 204.851L219.944 202.402C220.124 202.042 220.23 201.649 220.255 201.248L220.466 197.864L220.248 192.624C220.227 192.132 220.086 191.652 219.836 191.228L217.886 187.913C217.776 187.726 217.646 187.552 217.498 187.393L214.669 184.348C214.54 184.208 214.398 184.082 214.245 183.97L210.936 181.544C210.799 181.444 210.655 181.355 210.503 181.28L205.738 178.898L202.31 176.842C202.1 176.716 201.906 176.564 201.733 176.391L200.397 175.056C200.297 174.955 200.204 174.848 200.118 174.735L199.24 173.564C198.918 173.135 198.717 172.628 198.658 172.095L198.499 170.663V168.554C198.499 168.135 198.587 167.719 198.758 167.336L199.085 166.6C199.352 165.998 199.811 165.501 200.39 165.185L201.572 164.541C202.013 164.3 202.506 164.174 203.008 164.174H204.839C205.267 164.174 205.69 164.266 206.08 164.443L207.314 165.004C207.911 165.275 208.403 165.735 208.714 166.312L209.623 168C209.859 168.437 209.982 168.926 209.982 169.423V171.91Z" fill="black"/>
<path d="M168.3 140.822C168.3 140.378 168.202 139.94 168.012 139.539L153.144 108.113C152.215 106.151 153.613 103.883 155.782 103.831L165.196 103.601C166.375 103.572 167.461 104.236 167.972 105.299L174.29 118.42C175.423 120.774 178.814 120.655 179.78 118.228L207.645 48.2173C208.1 47.0758 209.204 46.3267 210.433 46.3267H222.028C224.212 46.3267 225.664 48.5856 224.757 50.5723L184.143 139.554C183.964 139.946 183.872 140.37 183.872 140.8V172.963C183.872 174.62 182.529 175.963 180.872 175.963H171.3C169.643 175.963 168.3 174.62 168.3 172.963V140.822Z" fill="black"/>
</svg>
